<svg width="90" height="21" viewBox="0 0 90 21" fill="none" xmlns="http://www.w3.org/2000/svg">
<g clip-path="url(#clip0_8_202)">
<path d="M19.7785 0.0214499C19.7726 0.0230543 19.7667 0.0244983 19.7608 0.0262633C19.7593 0.0267045 19.7578 0.0270254 19.7563 0.0274666L0.423581 6.02714C0.17204 6.10523 0.000442082 6.33772 8.52885e-07 6.60113C-0.000440376 6.86455 0.170355 7.0976 0.421695 7.1765L7.87626 9.51702L6.46818 13.2947C6.38587 13.5155 6.43998 13.764 6.6066 13.9307C6.77351 14.0976 7.02216 14.1513 7.24257 14.0691L11.0202 12.6611L13.3608 20.1156C13.4396 20.3666 13.6722 20.5373 13.9352 20.5373C13.9355 20.5373 13.9359 20.5373 13.9362 20.5373C14.1996 20.5369 14.4321 20.3653 14.5102 20.1137L20.5097 0.780845C20.5102 0.779361 20.5105 0.777836 20.511 0.776352C20.5127 0.770576 20.5141 0.76476 20.5157 0.758984C20.6374 0.308249 20.2228 -0.098404 19.7785 0.0214499ZM2.62234 6.60547L16.8314 2.19587L8.54616 8.46541L2.62234 6.60547ZM8.05644 12.4807L9.16489 9.50711L16.8317 3.70555L11.03 11.3723L8.05644 12.4807ZM13.9317 17.9149L12.0718 11.991L18.3413 3.70579L13.9317 17.9149Z" fill="#0F1138"/>
<path d="M4.78333 12.3487C4.54827 12.1136 4.16709 12.1136 3.93196 12.3487L0.319937 15.9607C0.084842 16.1958 0.084842 16.5769 0.319937 16.812C0.554992 17.0471 0.936173 17.0471 1.17131 16.812L4.78333 13.2C5.01842 12.9649 5.01842 12.5837 4.78333 12.3487Z" fill="#1A75E8"/>
<path d="M8.18842 15.7537C7.95332 15.5186 7.57214 15.5186 7.33705 15.7537L3.72503 19.3658C3.48993 19.6009 3.48993 19.982 3.72503 20.2171C3.96008 20.4522 4.3413 20.4522 4.5764 20.2171L8.18842 16.6051C8.42351 16.37 8.42351 15.9889 8.18842 15.7537Z" fill="#1A75E8"/>
<path d="M5.28186 15.2552C5.04681 15.0201 4.66562 15.0201 4.43049 15.2552L0.176321 19.5094C-0.0587737 19.7445 -0.0587737 20.1256 0.176321 20.3608C0.411376 20.5959 0.792598 20.5959 1.02769 20.3608L5.28186 16.1066C5.51696 15.8715 5.51696 15.4903 5.28186 15.2552Z" fill="#1A75E8"/>
</g>
<path d="M32.7632 11.1938H29.6827V14.376H28.0782V6.58902H33.1483V7.88864H29.6827V9.89958H32.7632V11.1938Z" fill="#0F1138"/>
<path d="M35.6085 14.376H34.0575V8.58926H35.6085V14.376ZM33.9666 7.09176C33.9666 6.86 34.0432 6.66925 34.1966 6.51949C34.3534 6.36974 34.5656 6.29487 34.833 6.29487C35.0968 6.29487 35.3072 6.36974 35.4641 6.51949C35.621 6.66925 35.6994 6.86 35.6994 7.09176C35.6994 7.32708 35.6192 7.51961 35.4587 7.66936C35.3019 7.81911 35.0933 7.89399 34.833 7.89399C34.5727 7.89399 34.3624 7.81911 34.2019 7.66936C34.045 7.51961 33.9666 7.32708 33.9666 7.09176Z" fill="#0F1138"/>
<path d="M38.3093 8.58926L38.3575 9.25779C38.7711 8.74079 39.3255 8.48229 40.0208 8.48229C40.634 8.48229 41.0904 8.66235 41.3899 9.02247C41.6894 9.38258 41.8427 9.92097 41.8499 10.6376V14.376H40.3042V10.6751C40.3042 10.347 40.2329 10.1099 40.0903 9.96375C39.9477 9.814 39.7106 9.73913 39.379 9.73913C38.944 9.73913 38.6178 9.92453 38.4003 10.2953V14.376H36.8546V8.58926H38.3093Z" fill="#0F1138"/>
<path d="M42.7858 11.4399C42.7858 10.5378 42.9873 9.81935 43.3902 9.28453C43.7966 8.74971 44.3511 8.48229 45.0535 8.48229C45.6168 8.48229 46.0821 8.69266 46.4494 9.11339V6.16116H48.0003V14.376H46.6045L46.5296 13.761C46.1445 14.2423 45.6489 14.483 45.0428 14.483C44.3618 14.483 43.8145 14.2156 43.4009 13.6808C42.9908 13.1424 42.7858 12.3954 42.7858 11.4399ZM44.3315 11.5522C44.3315 12.0941 44.4259 12.5095 44.6149 12.7983C44.8039 13.0871 45.0784 13.2315 45.4385 13.2315C45.9163 13.2315 46.2533 13.0301 46.4494 12.6272V10.3435C46.2568 9.94058 45.9234 9.73913 45.4492 9.73913C44.704 9.73913 44.3315 10.3435 44.3315 11.5522Z" fill="#0F1138"/>
<path d="M51.9848 10.0975L53.6053 6.58902H55.3595L52.8031 11.5522V14.376H51.1718V11.5522L48.6154 6.58902H50.375L51.9848 10.0975Z" fill="#0F1138"/>
<path d="M55.3755 11.4292C55.3755 10.8551 55.4861 10.3435 55.7071 9.89423C55.9282 9.44498 56.2455 9.09734 56.6591 8.85132C57.0763 8.6053 57.5594 8.48229 58.1085 8.48229C58.8893 8.48229 59.5258 8.72118 60.0178 9.19896C60.5134 9.67673 60.7897 10.3257 60.8468 11.1457L60.8575 11.5415C60.8575 12.4293 60.6097 13.1424 60.1141 13.6808C59.6185 14.2156 58.9535 14.483 58.1192 14.483C57.2849 14.483 56.6181 14.2156 56.119 13.6808C55.6234 13.146 55.3755 12.4186 55.3755 11.4987V11.4292ZM56.9212 11.5415C56.9212 12.0906 57.0246 12.5113 57.2314 12.8037C57.4382 13.0925 57.7341 13.2369 58.1192 13.2369C58.4936 13.2369 58.7859 13.0943 58.9963 12.809C59.2067 12.5202 59.3118 12.0603 59.3118 11.4292C59.3118 10.8908 59.2067 10.4736 58.9963 10.1777C58.7859 9.88175 58.49 9.73378 58.1085 9.73378C57.7306 9.73378 57.4382 9.88175 57.2314 10.1777C57.0246 10.4701 56.9212 10.9247 56.9212 11.5415Z" fill="#0F1138"/>
<path d="M65.2751 13.7877C64.8936 14.2513 64.3659 14.483 63.692 14.483C63.0717 14.483 62.5974 14.3047 62.2694 13.9482C61.945 13.5916 61.7792 13.0693 61.772 12.3812V8.58926H63.3177V12.3277C63.3177 12.9302 63.5922 13.2315 64.1413 13.2315C64.6654 13.2315 65.0255 13.0497 65.2216 12.686V8.58926H66.7726V14.376H65.3179L65.2751 13.7877Z" fill="#0F1138"/>
<path d="M71.1903 10.0386C70.9799 10.0101 70.7945 9.99584 70.634 9.99584C70.0493 9.99584 69.666 10.1937 69.4842 10.5895V14.376H67.9385V8.58926H69.3986L69.4414 9.27918C69.7516 8.74792 70.1812 8.48229 70.7303 8.48229C70.9015 8.48229 71.0619 8.50547 71.2117 8.55182L71.1903 10.0386Z" fill="#0F1138"/>
<path d="M75.7149 6.58902H77.3194V11.98C77.3194 12.4756 77.2089 12.9142 76.9878 13.2957C76.7703 13.6736 76.4619 13.966 76.0626 14.1728C75.6632 14.3796 75.2122 14.483 74.7095 14.483C73.8858 14.483 73.244 14.2744 72.7841 13.8573C72.3242 13.4365 72.0942 12.8429 72.0942 12.0763H73.7093C73.7093 12.4578 73.7896 12.7395 73.95 12.9213C74.1105 13.1032 74.3636 13.1941 74.7095 13.1941C75.0161 13.1941 75.2603 13.0889 75.4422 12.8785C75.624 12.6682 75.7149 12.3687 75.7149 11.98V6.58902Z" fill="#1A75E8"/>
<path d="M78.3516 11.4292C78.3516 10.8551 78.4621 10.3435 78.6832 9.89423C78.9043 9.44498 79.2216 9.09734 79.6352 8.85132C80.0523 8.6053 80.5355 8.48229 81.0845 8.48229C81.8654 8.48229 82.5018 8.72118 82.9939 9.19896C83.4895 9.67673 83.7658 10.3257 83.8228 11.1457L83.8335 11.5415C83.8335 12.4293 83.5857 13.1424 83.0901 13.6808C82.5945 14.2156 81.9296 14.483 81.0952 14.483C80.2609 14.483 79.5942 14.2156 79.095 13.6808C78.5994 13.146 78.3516 12.4186 78.3516 11.4987V11.4292ZM79.8972 11.5415C79.8972 12.0906 80.0006 12.5113 80.2074 12.8037C80.4142 13.0925 80.7102 13.2369 81.0952 13.2369C81.4696 13.2369 81.762 13.0943 81.9724 12.809C82.1827 12.5202 82.2879 12.0603 82.2879 11.4292C82.2879 10.8908 82.1827 10.4736 81.9724 10.1777C81.762 9.88175 81.4661 9.73378 81.0845 9.73378C80.7066 9.73378 80.4142 9.88175 80.2074 10.1777C80.0006 10.4701 79.8972 10.9247 79.8972 11.5415Z" fill="#1A75E8"/>
<path d="M90 11.5361C90 12.4632 89.8022 13.187 89.4064 13.7075C89.0106 14.2245 88.458 14.483 87.7484 14.483C87.1209 14.483 86.62 14.2423 86.2456 13.761L86.1761 14.376H84.7855V6.16116H86.3312V9.10804C86.6877 8.69088 87.1566 8.48229 87.7377 8.48229C88.4437 8.48229 88.9964 8.74258 89.3957 9.26314C89.7986 9.78013 90 10.5093 90 11.4506V11.5361ZM88.4544 11.4238C88.4544 10.8391 88.3617 10.413 88.1763 10.1456C87.9909 9.87462 87.7146 9.73913 87.3473 9.73913C86.8553 9.73913 86.5166 9.94058 86.3312 10.3435V12.6272C86.5201 13.0336 86.8624 13.2369 87.358 13.2369C87.8572 13.2369 88.1852 12.9909 88.3421 12.4988C88.417 12.2635 88.4544 11.9052 88.4544 11.4238Z" fill="#1A75E8"/>
<defs>
<clipPath id="clip0_8_202">
<rect width="20.5372" height="20.5372" fill="white"/>
</clipPath>
</defs>
</svg>
